<svg version="1.1" xmlns="http://www.w3.org/2000/svg">
	<symbol id="npm-logo" viewBox="0 0 18 7">
		<path d="M0,0v6h5v1h4v-1h9v-6" fill="white" />
		<path d="M1,1v4h2v-3h1v3h1v-4h1v5h2v-4h1v2h-1v1h2v-4h1v4h2v-3h1v3h1v-3h1v3h1v-4" />
	</symbol>
	<symbol id="create-new-folder" viewBox="0 0 24 24">
		<path d="M0 0h24v24H0V0z" fill="none" />
		<path d="M20 6h-8l-2-2H4c-1.11 0-1.99.89-1.99 2L2 18c0 1.11.89 2 2 2h16c1.11 0 2-.89 2-2V8c0-1.11-.89-2-2-2zm-1 8h-3v3h-2v-3h-3v-2h3V9h2v3h3v2z" />
	</symbol>
	<symbol id="folder-open" viewBox="0 0 24 24">
		<path d="M0 0h24v24H0z" fill="none" />
		<path d="M20 6h-8l-2-2H4c-1.1 0-1.99.9-1.99 2L2 18c0 1.1.9 2 2 2h16c1.1 0 2-.9 2-2V8c0-1.1-.9-2-2-2zm0 12H4V8h16v10z" />
	</symbol>
	<symbol id="get-app" viewBox="0 0 24 24">
		<path d="M19 9h-4V3H9v6H5l7 7 7-7zM5 18v2h14v-2H5z" />
		<path d="M0 0h24v24H0z" fill="none" />
	</symbol>
	<symbol id="settings" viewBox="0 0 24 24">
		<path d="M0 0h24v24H0z" fill="none" />
		<path d="M19.43 12.98c.04-.32.07-.64.07-.98s-.03-.66-.07-.98l2.11-1.65c.19-.15.24-.42.12-.64l-2-3.46c-.12-.22-.39-.3-.61-.22l-2.49 1c-.52-.4-1.08-.73-1.69-.98l-.38-2.65C14.46 2.18 14.25 2 14 2h-4c-.25 0-.46.18-.49.42l-.38 2.65c-.61.25-1.17.59-1.69.98l-2.49-1c-.23-.09-.49 0-.61.22l-2 3.46c-.13.22-.07.49.12.64l2.11 1.65c-.04.32-.07.65-.07.98s.03.66.07.98l-2.11 1.65c-.19.15-.24.42-.12.64l2 3.46c.12.22.39.3.61.22l2.49-1c.52.4 1.08.73 1.69.98l.38 2.65c.03.24.24.42.49.42h4c.25 0 .46-.18.49-.42l.38-2.65c.61-.25 1.17-.59 1.69-.98l2.49 1c.23.09.49 0 .61-.22l2-3.46c.12-.22.07-.49-.12-.64l-2.11-1.65zM12 15.5c-1.93 0-3.5-1.57-3.5-3.5s1.57-3.5 3.5-3.5 3.5 1.57 3.5 3.5-1.57 3.5-3.5 3.5z" />
	</symbol>
	<symbol id="view-list" viewBox="0 0 24 24">
		<path d="M4 14h4v-4H4v4zm0 5h4v-4H4v4zM4 9h4V5H4v4zm5 5h12v-4H9v4zm0 5h12v-4H9v4zM9 5v4h12V5H9z" />
		<path d="M0 0h24v24H0z" fill="none" />
	</symbol>
	<symbol id="list" viewBox="0 0 24 24">
		<path d="M3 13h2v-2H3v2zm0 4h2v-2H3v2zm0-8h2V7H3v2zm4 4h14v-2H7v2zm0 4h14v-2H7v2zM7 7v2h14V7H7z" />
		<path d="M0 0h24v24H0z" fill="none" />
	</symbol>
	<symbol id="extension" viewBox="0 0 24 24">
		<path d="M0 0h24v24H0z" fill="none" />
		<path d="M20.5 11H19V7c0-1.1-.9-2-2-2h-4V3.5C13 2.12 11.88 1 10.5 1S8 2.12 8 3.5V5H4c-1.1 0-1.99.9-1.99 2v3.8H3.5c1.49 0 2.7 1.21 2.7 2.7s-1.21 2.7-2.7 2.7H2V20c0 1.1.9 2 2 2h3.8v-1.5c0-1.49 1.21-2.7 2.7-2.7 1.49 0 2.7 1.21 2.7 2.7V22H17c1.1 0 2-.9 2-2v-4h1.5c1.38 0 2.5-1.12 2.5-2.5S21.88 11 20.5 11z" />
	</symbol>
	<symbol id="star" viewBox="0 0 24 24">
		<path d="M0 0h24v24H0z" fill="none" />
		<path d="M12 17.27L18.18 21l-1.64-7.03L22 9.24l-7.19-.61L12 2 9.19 8.63 2 9.24l5.46 4.73L5.82 21z" />
		<path d="M0 0h24v24H0z" fill="none" />
	</symbol>
	<symbol id="star-border" viewBox="0 0 24 24">
		<path d="M22 9.24l-7.19-.62L12 2 9.19 8.63 2 9.24l5.46 4.73L5.82 21 12 17.27 18.18 21l-1.63-7.03L22 9.24zM12 15.4l-3.76 2.27 1-4.28-3.32-2.88 4.38-.38L12 6.1l1.71 4.04 4.38.38-3.32 2.88 1 4.28L12 15.4z" />
		<path d="M0 0h24v24H0z" fill="none" />
	</symbol>
	<symbol id="stop" viewBox="0 0 24 24">
		<path d="M0 0h24v24H0z" fill="none" />
		<path d="M6 6h12v12H6z" />
	</symbol>
	<symbol id="play-arrow" viewBox="0 0 24 24">
		<path d="M8 5v14l11-7z" />
		<path d="M0 0h24v24H0z" fill="none" />
	</symbol>
	<symbol id="cancel" viewBox="0 0 24 24">
		<path d="M12 2C6.47 2 2 6.47 2 12s4.47 10 10 10 10-4.47 10-10S17.53 2 12 2zm5 13.59L15.59 17 12 13.41 8.41 17 7 15.59 10.59 12 7 8.41 8.41 7 12 10.59 15.59 7 17 8.41 13.41 12 17 15.59z" />
		<path d="M0 0h24v24H0z" fill="none" />
	</symbol>
	<symbol id="checkbox" viewBox="0 0 24 24">
		<path d="M0 0h24v24H0z" fill="none" />
		<path d="M19 3H5c-1.11 0-2 .9-2 2v14c0 1.1.89 2 2 2h14c1.11 0 2-.9 2-2V5c0-1.1-.89-2-2-2zm-9 14l-5-5 1.41-1.41L10 14.17l7.59-7.59L19 8l-9 9z" />
	</symbol>
	<symbol id="checkbox-outline" viewBox="0 0 24 24">
		<path d="M19 5v14H5V5h14m0-2H5c-1.1 0-2 .9-2 2v14c0 1.1.9 2 2 2h14c1.1 0 2-.9 2-2V5c0-1.1-.9-2-2-2z" />
		<path d="M0 0h24v24H0z" fill="none" />
	</symbol>
	<symbol id="arrow-back" viewBox="0 0 24 24">
		<path d="M0 0h24v24H0z" fill="none" />
		<path d="M20 11H7.83l5.59-5.59L12 4l-8 8 8 8 1.41-1.41L7.83 13H20v-2z" />
	</symbol>
</svg>
