<?xml version="1.0" standalone="no"?><!DOCTYPE svg PUBLIC "-//W3C//DTD SVG 1.1//EN" "http://www.w3.org/Graphics/SVG/1.1/DTD/svg11.dtd"><svg width="100%" height="100%" viewBox="0 0 82 42" version="1.1" xmlns="http://www.w3.org/2000/svg" xmlns:xlink="http://www.w3.org/1999/xlink" xml:space="preserve" style="fill-rule:evenodd;clip-rule:evenodd;stroke-linejoin:round;stroke-miterlimit:1.41421;"><clipPath id="_clip1"><rect id="npmkit-logo" x="0" y="0" width="82" height="42"/></clipPath><g clip-path="url(#_clip1)"><g id="box"><path id="box-sides" d="M3,0l76,0l3,3l0,11l-82,0l0,-11l3,-3Z" style="fill:#a22c30;"/><rect id="box-top" x="3" y="0" width="76" height="11" style="fill:#db5c61;"/><path id="box-face" d="M3,11l-3,3l0,25l3,3l76,0l3,-3l0,-25l-3,-3l-76,0Z" style="fill:#c7363a;"/></g><g id="handle"><path id="handle1" d="M31,7l4,0l0,-4l12,0l0,4l4,0l0,-6l-20,0l0,6Z" style="fill:#641b1d;"/><path id="handle-shadow" d="M31,7l4,0l0,3l12,0l0,-3l4,0l0,4l-20,0l0,-4Z" style="fill:#c7363a;"/></g><g id="Line"><rect id="line-dark" x="0" y="15" width="82" height="1" style="fill:#641b1d;fill-opacity:0.5;"/><rect id="lline-light" x="0" y="16" width="82" height="1" style="fill:#db5c61;fill-opacity:0.75;"/></g><g id="lock-left"><path d="M5,15l6,0l0,3l-2,0l0,2l-2,0l0,-2l-2,0l0,-3Z" style="fill:#d35b5f;"/><rect x="5" y="14" width="6" height="1" style="fill:#e08c8f;"/><rect x="5" y="18" width="2" height="1" style="fill:#96292c;"/><rect x="7" y="20" width="2" height="1" style="fill:#96292c;"/><rect x="9" y="18" width="2" height="1" style="fill:#96292c;"/></g><g id="lock-right"><path d="M71,15l6,0l0,3l-2,0l0,2l-2,0l0,-2l-2,0l0,-3Z" style="fill:#d35b5f;"/><rect x="71" y="14" width="6" height="1" style="fill:#e08c8f;"/><rect x="71" y="18" width="2" height="1" style="fill:#96292c;"/><rect x="73" y="20" width="2" height="1" style="fill:#96292c;"/><rect x="75" y="18" width="2" height="1" style="fill:#96292c;"/></g><g id="npm-logo"><path d="M23,23l0,12l10,0l0,2l8,0l0,-2l18,0l0,-12l-36,0Z" style="fill:#fff;"/><g><path d="M25,25l0,8l4,0l0,-6l2,0l0,6l2,0l0,-8l-8,0Z" style="fill:#c7363a;"/><path d="M43,33l-4,0l0,2l-4,0l0,-10l8,0l0,8ZM41,31l0,-4l-2,0l0,4l2,0Z" style="fill:#c7363a;"/><path d="M57,33l0,-8l-12,0l0,8l4,0l0,-6l2,0l0,6l2,0l0,-6l2,0l0,6l2,0Z" style="fill:#c7363a;"/></g></g></g></svg>